<svg width="129" height="129" fill="none" xmlns="http://www.w3.org/2000/svg"><mask id="a" style="mask-type:luminance" maskUnits="userSpaceOnUse" x="0" y="0" width="129" height="129"><path d="M129 0H0v129h129V0Z" fill="#fff"/></mask><g mask="url(#a)"><path d="M57.31 7.031c0-2.453-.04-4.8-.12-7.031C13.92 1.196 1.183 13.948 0 57.25c2.218.081 4.537.115 6.964.115 5.203 0 9.901-.168 14.143-.552 24.333-2.184 33.475-11.34 35.646-35.706h.014c.376-4.222.544-8.9.544-14.083v.007Z" fill="#68E246"/><path d="M71.695 7.031c0-2.453.04-4.793.121-7.031 43.269 1.196 56.007 13.948 57.19 57.25-2.218.081-4.537.115-6.964.115-5.202 0-9.901-.168-14.143-.552-24.333-2.184-33.475-11.34-35.646-35.706h-.013c-.377-4.222-.545-8.9-.545-14.083v.007Z" fill="#10A3FF"/><path d="M71.695 121.959c0 2.453.04 4.792.121 7.031 43.269-1.197 56.007-13.948 57.19-57.25-2.218-.081-4.537-.115-6.964-.115-5.202 0-9.901.168-14.143.551-24.333 2.185-33.475 11.34-35.646 35.707h-.013c-.377 4.221-.545 8.9-.545 14.082v-.006Z" fill="#FFB82A"/><path d="M57.31 121.959c0 2.453-.04 4.792-.12 7.031C13.92 127.793 1.183 115.042 0 71.74c2.218-.081 4.537-.115 6.964-.115 5.203 0 9.901.168 14.143.551 24.333 2.185 33.475 11.34 35.646 35.707h.013c.377 4.221.545 8.9.545 14.082v-.006Z" fill="#FC57E5"/></g></svg>